<svg xmlns="http://www.w3.org/2000/svg" width="480" height="300" fill="none" viewBox="0 0 480 300">
  <defs>
    <linearGradient id="bg" x1="28" x2="456" y1="18" y2="282" gradientUnits="userSpaceOnUse"><stop stop-color="#EDF2FF"/><stop offset="1" stop-color="#D8E5FF"/></linearGradient>
    <linearGradient id="screen" x1="173" x2="327" y1="123" y2="226" gradientUnits="userSpaceOnUse"><stop stop-color="#24479F"/><stop offset="1" stop-color="#4771DF"/></linearGradient>
    <linearGradient id="shirt" x1="189" x2="281" y1="163" y2="256" gradientUnits="userSpaceOnUse"><stop stop-color="#46A6A0"/><stop offset="1" stop-color="#25827F"/></linearGradient>
  </defs>
  <rect width="480" height="300" rx="24" fill="url(#bg)"/>
  <circle cx="385" cy="66" r="37" fill="#fff" fill-opacity=".7"/>
  <circle cx="385" cy="66" r="20" fill="#F8C95C"/>
  <path d="M42 246h396" stroke="#B5C8F2" stroke-linecap="round" stroke-width="4"/>
  <path d="M106 246h64v-91h-64z" fill="#fff" fill-opacity=".8"/>
  <path d="M117 169h42m-42 14h32m-32 14h39m-39 14h26" stroke="#B2C5F0" stroke-linecap="round" stroke-width="5"/>
  <path d="M300 196h47v50h-47z" fill="#F1B95E"/>
  <path d="M306 187h35v13h-35z" fill="#E9A94F"/>
  <path d="M312 178h23v12h-23z" fill="#F7CA70"/>
  <path d="M187 168c0-25 18-44 42-44h12c24 0 42 19 42 44v36h-96z" fill="#253968"/>
  <path d="M199 138c7-17 22-27 42-27 20 0 35 10 42 27-11-7-24-11-42-11s-31 4-42 11" fill="#253968"/>
  <path d="M214 155c0-18 13-32 30-32s30 14 30 32v23c0 18-13 32-30 32s-30-14-30-32z" fill="#E9AD82"/>
  <path d="M215 159c6-7 14-11 23-12v15c0 9-7 17-16 18z" fill="#D99670"/>
  <path d="M205 232c0-31 17-51 39-51h1c24 0 42 20 42 51v14h-82z" fill="url(#shirt)"/>
  <path d="m230 184 14 17 14-17" fill="#F5F8FF"/>
  <path d="M184 222h113a7 7 0 0 1 7 7v5H177v-5a7 7 0 0 1 7-7" fill="#D5DEEF"/>
  <rect x="190" y="140" width="100" height="68" rx="7" fill="#D8E2F8" transform="rotate(-7 190 140)"/>
  <rect x="196" y="145" width="88" height="57" rx="4" fill="url(#screen)" transform="rotate(-7 196 145)"/>
  <path d="m211 165 6 6 11-13m-9 22h34m-35 9h25" stroke="#fff" stroke-linecap="round" stroke-linejoin="round" stroke-width="3" transform="rotate(-7 211 165)"/>
  <path d="m92 93 5 12 12 5-12 5-5 12-5-12-12-5 12-5z" fill="#F1B95E"/>
  <path d="m355 133 3 8 8 3-8 3-3 8-3-8-8-3 8-3z" fill="#4771DF"/>
</svg>
